# xmcd
#
# Track frame offsets: 
#        150
#        30575
#        63895
#        88402
#        112845
#        134640
#        154507
#
# Disc length: 2319 seconds
#
# Revision: 2
# Processed by: cddbd v1.5.2PL0 Copyright (c) Steve Scherf et al.
# Submitted via: ExactAudioCopy v1.0b6
#
DISCID=54090d07
DTITLE=The Dave Brubeck Quartet - Time Out
DYEAR=1959
DGENRE=Jazz
TTITLE0=Blue Rondo A La Turk
TTITLE1=Strange Meadow Lark
TTITLE2=Take Five
TTITLE3=Three To Get Ready
TTITLE4=Kathy's Waltz
TTITLE5=Everybody's Jumpin'
TTITLE6=Pick Up Sticks
EXTD=YEAR: 1959
EXTT0=
EXTT1=
EXTT2=
EXTT3=
EXTT4=
EXTT5=
EXTT6=
PLAYORDER=
